<svg height="16" viewBox="0 0 16 16" width="16" xmlns="http://www.w3.org/2000/svg"><path d="m8.69398 2.03934c.15876.06698571.26990449.20989469.29842006.37594887l.00720994.08471151v11.00000002c0 .2013996-.12086.3831996-.30661.4610996-.15921429.0667714-.33944816.0460408-.47817499-.0501009l-.06561501-.0542991-2.92643-2.875h-1.72315c-.77968941 0-1.42044789-.5949121-1.49313335-1.35552756l-.00686665-.14445244v-2.98899c0-.77968941.59489439-1.42044789 1.3555411-1.49313335l.1444589-.00686665h1.72439l2.92671-2.85088c.14401-.14028.35802-.18066.54325-.10251zm3.0433727 1.01984137.0865473.05879863.0978.08457c.0629.05653.1497.13842.2525.24515.2053.21319.4759.52733.7459.93857.5404.82311 1.0828 2.04307 1.0828 3.61778 0 1.57479-.5425 2.79295-1.0832 3.61425-.2701.4103-.5408.7235-.7462.936l-.1412625.1409375-.1867375.1689625-.033.0271c-.2165.1715-.5317.1356-.7032-.0808-.1520889-.192-.1405432-.4611951.0151122-.6392362l.1291878-.1174638c.0466-.0417.1161-.1068.2009-.1945.1699-.1758.3996-.4409.63-.7908.4601-.6991.9184-1.72897.9184-3.06445 0-1.33558-.4583-2.36762-.9188-3.06896-.192-.29248333-.3835833-.52608472-.5405486-.6980206l-.1691958-.17627384-.1843556-.16941556c-.2157-.17206-.2518-.48687-.0799-.7028.1528889-.19202667.4183704-.24156247.6272527-.12939863zm-.9992297 1.99990135.099577.06973728.1336519.1257363.0540481.0566337c.1135.12243.2599.30177.4049.54024.2915.47953.5736 1.19296.5736 2.14712 0 .95413-.2821 1.66832-.5734 2.14855-.1448.2388-.2912.4186-.4046.5413l-.101563.1042667-.070287.0650208-.03975.0337125-.0634838.0288127c-.1323878.0530305-.4419854.1394565-.6392162-.1073127-.15248-.1907556-.14263704-.4588642.0109171-.6375923l.1344533-.1292336.0344296-.0362741c.0745-.08057.1786-.20732.2841-.38133.2096-.34546.4284-.88238.4284-1.62992 0-.74749-.2188-1.28333-.4281-1.62765-.079125-.130095-.1574062-.23362312-.2229469-.31107375l-.0952568-.10487477-.0684963-.06500148c-.21471-.17122-.25002-.48523-.0782-.70121.1528-.19208889.4182716-.24173432.627223-.12965728z" fill="#212121"/></svg>